<?xml version="1.0" encoding="utf-8"?>
<!-- Generator: Adobe Illustrator 24.3.0, SVG Export Plug-In . SVG Version: 6.00 Build 0)  -->
<svg version="1.1" id="Layer_1" xmlns="http://www.w3.org/2000/svg" xmlns:xlink="http://www.w3.org/1999/xlink" x="0px" y="0px"
	 viewBox="0 0 636 300" style="enable-background:new 0 0 636 300;" xml:space="preserve">
<style type="text/css">
	.st0{fill:#D0EDFD;}
	.st1{fill:#CCCAC7;}
	.st2{fill:#797672;}
	.st3{fill:#E6E4E3;}
	.st4{fill:#F2A694;}
	.st5{fill:#6D6A66;}
	.st6{fill:#E86E58;}
	.st7{fill:url(#SVGID_1_);}
	.st8{fill:#4A4844;}
	.st9{fill:url(#SVGID_2_);}
	.st10{fill:#D8CFF7;}
	.st11{fill:#512BD4;}
	.st12{fill:#FFFFFF;}
	.st13{fill:url(#SVGID_3_);}
	.st14{fill:#A08BE8;}
	.st15{fill:#8065E0;}
	.st16{fill:#8A6FE8;}
	.st17{fill:url(#SVGID_4_);}
	.st18{fill:#522CD5;}
	.st19{fill:url(#SVGID_5_);}
	.st20{fill:#DC624F;}
	.st21{fill:#CC5444;}
	.st22{fill:#FDFDFD;}
	.st23{fill:#A3C9F6;}
	.st24{fill:#CAE0FA;}
	.st25{fill:#B2B2B2;}
</style>
<g>
	<path class="st0" d="M462.89,76.34l-126.87,7.79c0,0,5.25-11.31,11.48-14.37c7.2-3.54,15.17-1.41,15.17-1.41
		s4.51-11.69,12.96-13.97c10.64-2.86,16.4,2.73,16.4,2.73s6.5-7.92,18.07-6.96c13.04,1.08,14.97,9.24,14.97,9.24
		s7.14-2.11,14.01,0.25c5.33,1.84,8.83,8.01,8.83,8.01s5.23-0.97,8.97,0.35C462.44,69.97,462.89,76.34,462.89,76.34z"/>
	<g>
		<path class="st1" d="M219.73,87.94c0,0-22.38-2.24-48.93,13.49c-30.87,18.29-51.22,14.63-51.22,14.63L95.11,57.76
			c0,0,22.87,2.97,53.73-15.32c26.55-15.73,48.93-13.49,48.93-13.49L219.73,87.94z"/>
		<path class="st2" d="M219.73,87.94c0,0-22.38-2.24-48.93,13.49c-30.87,18.29-51.22,14.63-51.22,14.63L95.11,57.76
			c0,0,22.87,2.97,53.73-15.32c26.55-15.73,48.93-13.49,48.93-13.49L219.73,87.94z"/>
		<path class="st3" d="M139.4,47.52l24.55,57.7c2.22-1.15,4.5-2.4,6.85-3.79c2.21-1.31,4.38-2.48,6.52-3.55l-24.68-57.58
			c-1.25,0.67-2.52,1.38-3.79,2.13C145.6,44.36,142.45,46.04,139.4,47.52z"/>
		<path class="st3" d="M181.09,30.17c-4.29,0.79-9.24,2.03-14.62,3.96l24.7,58.05c5.64-1.83,10.72-2.91,14.99-3.54L181.09,30.17z"/>
		<path class="st3" d="M135.55,115.28c4.22-0.76,9.18-2.02,14.78-4.06l-24.86-58.01c-5.55,1.84-10.52,2.99-14.75,3.69L135.55,115.28
			z"/>
		<path class="st3" d="M100.39,70.34l4.88,11.63c8.37,1.21,29.62,0.67,52.72-15.3c23.68-16.36,44.09-14.24,48.82-13.46L202.26,41
			c-4.63-0.23-24.76-0.27-48.84,14.02C132.71,67.3,116.99,70.98,100.39,70.34z"/>
		<path class="st3" d="M169.88,88.4c20.35-13.57,39.75-12.89,45.43-12.33l-4.22-11.33c-4.54-0.5-26.71-1.95-49.45,13.6
			c-20.72,14.17-37.52,17.96-51.15,16.1l4.59,10.95C129.65,107.79,150.07,101.6,169.88,88.4z"/>
		<g>
			<path class="st4" d="M263.63,194.76c-0.65,0-1.26-0.39-1.52-1.02L194.44,27.12c-0.34-0.84,0.06-1.79,0.9-2.13
				c0.83-0.34,1.79,0.06,2.13,0.9l67.67,166.62c0.34,0.84-0.06,1.79-0.9,2.13C264.04,194.72,263.84,194.76,263.63,194.76z"/>
		</g>
		<g>
			<path class="st2" d="M159.46,94.67c3.47-1.87,6.96-3.96,10.42-6.27c0.89-0.59,1.77-1.12,2.65-1.66l-5.14-11.98
				c-1.91,1.08-3.82,2.27-5.75,3.58c-2.45,1.68-4.84,3.19-7.19,4.59L159.46,94.67z"/>
			<path class="st2" d="M131.18,105c4.69-0.82,9.63-2.2,14.72-4.12l-4.81-11.21c-5.16,2.12-10.01,3.53-14.59,4.34L131.18,105z"/>
			<path class="st2" d="M196.05,65.1c-4.4,0.58-9.47,1.64-14.93,3.49l4.94,11.62c5.42-1.97,10.48-3.11,14.87-3.72L196.05,65.1z"/>
		</g>
		<g>
			<path class="st2" d="M149.73,71.79c2.71-1.5,5.47-3.19,8.26-5.12c1.57-1.08,3.12-2.08,4.66-3.01l-4.78-11.16
				c-1.47,0.78-2.95,1.62-4.45,2.5c-3.03,1.8-5.94,3.39-8.77,4.83L149.73,71.79z"/>
			<path class="st2" d="M171.67,46.37l4.55,10.7c5.44-2.02,10.43-3.18,14.77-3.78l-4.69-10.95
				C182.01,43.15,177.08,44.42,171.67,46.37z"/>
			<path class="st2" d="M121.23,81.62c4.44-0.65,9.44-1.81,14.83-3.69l-5.2-12.14c-5.1,1.77-9.98,2.99-14.78,3.72L121.23,81.62z"/>
		</g>
	</g>
	<path class="st5" d="M160.27,225.32c16.82,1.31,279.87,12.27,284.44,12.27s88.14,0.98,95.97,0.33s3.59-3.59-11.1-5.55
		c-14.69-1.96-201.73-26.77-201.73-26.77l-118.82-5.88c0,0,3.96,20.28-35.48,20.55C146.45,220.46,143.46,224.01,160.27,225.32z"/>
	<g>
		<path class="st6" d="M215.25,137.11c-1.27-2.86,0.9-6.06,4.02-5.91c7.54,0.34,19.78,1.1,28.13,2.64
			c16.26,2.99,11.53,10.94-3.67,14.95c-13.91,3.67-22.83,1.05-22.83,1.05L215.25,137.11z"/>
		
			<radialGradient id="SVGID_1_" cx="-1928.8655" cy="-7276.708" r="5.0231" gradientTransform="matrix(0.8911 0.6645 -0.7173 0.8688 -3137.4653 7763.9048)" gradientUnits="userSpaceOnUse">
			<stop  offset="0" style="stop-color:#8065E0"/>
			<stop  offset="1" style="stop-color:#512BD4"/>
		</radialGradient>
		<path class="st7" d="M356.13,162.86c-0.44-2.99,1.75-5.82,4.9-6.32c3.14-0.49,6.05,1.53,6.49,4.53c0.44,2.99-1.75,5.82-4.9,6.32
			S356.57,165.85,356.13,162.86z"/>
		<path class="st8" d="M309.4,171.12l-32.14-3.36c0,0,7.1-32.7,25.04-32.52C320.24,135.43,309.4,171.12,309.4,171.12z"/>
		
			<radialGradient id="SVGID_2_" cx="3694.7095" cy="127.2283" r="26.8091" gradientTransform="matrix(-1.1443 0.0648 0.0789 1.0887 4549.6587 -243.9061)" gradientUnits="userSpaceOnUse">
			<stop  offset="0.4744" style="stop-color:#A08BE8"/>
			<stop  offset="0.8618" style="stop-color:#8065E0"/>
		</radialGradient>
		<path class="st9" d="M354.07,151.95c1.5-7.55-0.25-13.41-0.25-13.41l1.84-0.1l0.04-0.04c-3.62-13.49-16.93-23.12-32.03-22.27
			c-17.01,0.96-29.85,14.87-28.68,31.05s15.92,28.53,32.93,27.57c13.42-0.76,24.25-9.58,27.64-21.22
			C355.65,153.04,355.58,152.17,354.07,151.95z"/>
		<path class="st10" d="M353.5,158.77l-53.19,3.01c1.33,1.86,2.88,3.56,4.6,5.08l44.75-2.53
			C351.16,162.63,352.45,160.77,353.5,158.77z"/>
		<g>
			<polygon class="st11" points="337.61,166.62 347.59,166.06 346.98,157.66 337,158.22 			"/>
			<g>
				<path class="st12" d="M339.12,163.39c-0.07,0-0.12-0.01-0.17-0.05c-0.05-0.04-0.08-0.09-0.08-0.15c0-0.06,0.02-0.11,0.06-0.16
					c0.04-0.05,0.1-0.07,0.16-0.07c0.07,0,0.13,0.01,0.18,0.06c0.05,0.04,0.08,0.09,0.08,0.15c0,0.06-0.02,0.11-0.06,0.16
					C339.24,163.36,339.19,163.39,339.12,163.39z"/>
				<path class="st12" d="M341.77,163.21l-0.43,0.02l-1.26-1.65c-0.03-0.04-0.06-0.09-0.08-0.13l-0.01,0
					c0.01,0.05,0.02,0.16,0.04,0.32l0.11,1.52l-0.38,0.02l-0.16-2.32l0.46-0.02l1.22,1.61c0.05,0.07,0.08,0.11,0.1,0.14l0.01,0
					c-0.02-0.06-0.03-0.16-0.04-0.31l-0.1-1.5l0.38-0.02L341.77,163.21z"/>
				<path class="st12" d="M343.63,163.11l-1.34,0.07l-0.16-2.32l1.28-0.07l0.02,0.33l-0.89,0.05l0.05,0.66l0.82-0.04l0.02,0.33
					l-0.82,0.04l0.05,0.69l0.94-0.05L343.63,163.11z"/>
				<path class="st12" d="M345.39,161.01l-0.68,0.04l0.14,2l-0.4,0.02l-0.14-2l-0.68,0.04l-0.02-0.33l1.76-0.1L345.39,161.01z"/>
			</g>
		</g>
		<g>
			
				<radialGradient id="SVGID_3_" cx="3676.5205" cy="128.226" r="27.7829" gradientTransform="matrix(-1.1443 0.0648 0.0789 1.0887 4549.6587 -243.9061)" gradientUnits="userSpaceOnUse">
				<stop  offset="0.0933" style="stop-color:#E1DFDD"/>
				<stop  offset="0.6573" style="stop-color:#FFFFFF"/>
			</radialGradient>
			<path class="st13" d="M354.14,151.94c1.48-7.46-0.2-13.26-0.24-13.4l-31.96,1.81c0,0-2.03-0.08-1.9,1.67s0.56,6.69,0.96,12.16
				c0.08,1.12,1.09,1.61,1.85,1.57C322.84,155.75,353.43,153.2,354.14,151.94z"/>
			<path class="st14" d="M335.08,153.04c0,0,4.65-3.98,5.56-4.72c0.91-0.74,1.75-0.82,2.68-0.15c0.93,0.67,6.12,4.06,6.12,4.06
				L335.08,153.04z"/>
			<path class="st11" d="M355.47,153.91c0,0,0.8-1.65-1.33-1.97c0-0.01-31.42,1.76-31.42,1.76c-0.73,0.04-1.7-0.32-1.83-0.99
				c0.04,0.48,0.07,0.97,0.11,1.47c0.07,1.02,0.91,1.51,1.63,1.57c0.07,0,0.14,0.01,0.22,0l2.15-0.12L355.47,153.91z"/>
			<g>
				
					<ellipse transform="matrix(0.9951 -0.0989 0.0989 0.9951 -12.8787 33.3345)" class="st11" cx="329.91" cy="146.61" rx="2.41" ry="3.87"/>
				<path class="st15" d="M329.75,144.68c0.46-0.5,1.11-0.74,1.75-0.72c0.43,0.65,0.73,1.51,0.81,2.48c0.05,0.6,0.01,1.17-0.09,1.69
					c-0.75,0.25-1.61,0.12-2.25-0.42C329.03,146.93,328.93,145.57,329.75,144.68z"/>
			</g>
			<g>
				
					<ellipse transform="matrix(0.9951 -0.0989 0.0989 0.9951 -12.6754 35.2484)" class="st11" cx="349.32" cy="145.52" rx="2.41" ry="3.87"/>
				<path class="st15" d="M349.16,143.59c0.46-0.5,1.11-0.74,1.75-0.72c0.43,0.65,0.73,1.51,0.81,2.48c0.05,0.6,0.01,1.17-0.09,1.69
					c-0.75,0.25-1.61,0.12-2.25-0.42C348.44,145.84,348.34,144.48,349.16,143.59z"/>
			</g>
		</g>
		<g>
			<path class="st16" d="M332.95,171.55c-0.48,0.16-11.93,3.96-20.43-1.77c-4.91-3.31-7.75-8.98-8.43-16.86l5.46-0.69
				c0.52,6.09,2.55,10.37,6.03,12.72c6.34,4.29,15.73,1.22,15.83,1.19L332.95,171.55z"/>
		</g>
		<g>
			<path class="st16" d="M363.87,161.9l-6.08,6.17c-1,1.02-1.05,2.66-0.1,3.67l0.17,0.18c0.95,1.01,2.52,1.01,3.53-0.01l6.08-6.17
				c1-1.02,1.05-2.66,0.1-3.67l-0.17-0.18C366.45,160.88,364.88,160.88,363.87,161.9z"/>
			<path class="st16" d="M360.1,178.09l4.67,2.78c1.25,0.73,2.86,0.25,3.61-1.07c0.74-1.32,0.33-2.99-0.92-3.72l-4.79-2.85
				L360.1,178.09z"/>
			<path class="st16" d="M362.91,177.08l7.47,0.66c1.44,0.12,2.75-1,2.91-2.51c0.16-1.51-0.87-2.83-2.32-2.95l-5.55-0.51
				L362.91,177.08z"/>
			<path class="st16" d="M362.48,173.78l7.48-1.13c1.44-0.22,2.49-1.6,2.33-3.1c-0.16-1.5-1.46-2.54-2.91-2.32l-7.62,1.15
				L362.48,173.78z"/>
			
				<radialGradient id="SVGID_4_" cx="-10078.7793" cy="301.2121" r="5.024" gradientTransform="matrix(0.692 -0.9083 0.851 0.6905 7078.0737 -9191.542)" gradientUnits="userSpaceOnUse">
				<stop  offset="0" style="stop-color:#8065E0"/>
				<stop  offset="1" style="stop-color:#512BD4"/>
			</radialGradient>
			<path class="st17" d="M357.66,168.36c2.33-2.11,5.81-1.9,7.76,0.46s1.64,5.98-0.69,8.09c-2.33,2.11-5.81,1.9-7.76-0.46
				S355.32,170.47,357.66,168.36z"/>
		</g>
		<g>
			<path class="st16" d="M320.6,114.64l5.75-0.35l-1.66-9.87l-4.13,0.25L320.6,114.64z"/>
			<path class="st10" d="M323.94,108.4c-2.06,0.64-4.3-0.42-5-2.36c-0.71-1.94,0.38-4.03,2.44-4.67c2.06-0.64,4.3,0.42,5,2.36
				C327.09,105.67,325.99,107.76,323.94,108.4z"/>
			<path class="st18" d="M318.67,118.17c-0.26,0.01-0.49-0.18-0.47-0.43c0.1-2.59,2.25-4.73,5.06-4.89c2.81-0.17,5.29,1.69,5.8,4.24
				c0.05,0.24-0.14,0.46-0.4,0.48L318.67,118.17z"/>
		</g>
		
			<radialGradient id="SVGID_5_" cx="-1012.4124" cy="139.3179" r="4.9444" gradientTransform="matrix(1.1443 -0.0648 0.0789 1.0887 1452.251 -68.599)" gradientUnits="userSpaceOnUse">
			<stop  offset="0" style="stop-color:#8065E0"/>
			<stop  offset="1" style="stop-color:#512BD4"/>
		</radialGradient>
		<path class="st19" d="M308.32,145.53c2.84,1.28,4.08,4.49,2.76,7.18c-1.32,2.69-4.69,3.83-7.53,2.56
			c-2.84-1.28-4.08-4.49-2.76-7.18C302.11,145.4,305.48,144.26,308.32,145.53z"/>
		<path class="st8" d="M191.34,171.67c-2.9,0-7.89,0-12.05,0c-0.96,0-1.74,1.67-2.37,4.4c-7.45,4.95-12.41,13.6-12.41,23.48
			c0,9.47,4.56,17.83,11.51,22.86c0.47,3.1,1.08,5.01,1.83,5.01c4.06,0,8.27,0,13.5,0c14.82,0,26.83-12.48,26.83-27.87
			S206.16,171.67,191.34,171.67z"/>
		<ellipse class="st2" cx="179.29" cy="199.55" rx="26.83" ry="27.87"/>
		<ellipse class="st12" cx="179.29" cy="199.55" rx="19.77" ry="20.54"/>
		<ellipse class="st1" cx="179.29" cy="199.55" rx="14.89" ry="15.46"/>
		<ellipse class="st12" cx="183.31" cy="199.55" rx="4.82" ry="5.01"/>
		<polygon class="st8" points="197.09,166.82 192.04,142.16 195.97,142.72 212.51,167.67 		"/>
		<polygon class="st8" points="233.25,165.7 228.2,141.04 232.13,141.6 248.67,166.54 		"/>
		<path class="st4" d="M166.53,135.99c0.84-0.56,60.55,1.68,68.4,1.96s12.31,4.09-4.2,5.05c-19.34,1.12-64.75,0-64.75,0
			L166.53,135.99z"/>
		<path class="st8" d="M490.07,181.53c-2.6,0-7.06,0-10.79,0c-0.86,0-1.56,1.47-2.13,3.86c-6.67,4.35-11.11,11.95-11.11,20.61
			c0,8.32,4.08,15.65,10.3,20.07c0.42,2.72,0.97,4.4,1.64,4.4c3.64,0,7.4,0,12.08,0c13.27,0,24.02-10.96,24.02-24.48
			S503.34,181.53,490.07,181.53z"/>
		<ellipse class="st2" cx="479.28" cy="206.01" rx="24.02" ry="24.48"/>
		<ellipse class="st12" cx="479.28" cy="206.01" rx="17.7" ry="18.03"/>
		<ellipse class="st1" cx="479.28" cy="206.01" rx="12.91" ry="13.15"/>
		<path class="st20" d="M545.29,234.82l-38.11-2.23l4.45-20.31c0,0,0.73-2.44,13.63,1.39c12.83,3.81,20.75,13.25,24.17,18.23
			c0.91,1.32-0.1,3.09-1.7,3.02L545.29,234.82z"/>
		<path class="st21" d="M480.82,214.84l38.96,2.78c0,0,6.86,3.72,8.86,6.58c2,2.86-1.66,6.39-1.66,6.39l-25.16,0.3L480.82,214.84z"
			/>
		<path class="st6" d="M150.29,137.27c-1.31-2.94,0.93-6.22,4.14-6.08c8.03,0.36,21.3,1.17,30.33,2.83
			c17.37,3.19,12.32,11.69-3.92,15.98c-14.86,3.92-24.39,1.12-24.39,1.12L150.29,137.27z"/>
		<path class="st6" d="M501.8,214.48c-27.47-15.14-66.44-35.88-99.23-40.08c-32.8-4.21-113.25-7.29-113.25-7.29
			s-0.46-8.88,3.92-19.06c0.56-1.29,1.13-2.45,1.71-3.56c0.11-4.61,1.36-8.97,3.5-12.83l-22.12,6.21c0,0-30.46,22.8-56.25,25.04
			c-25.79,2.24-65.03-1.96-65.03-1.96l5.33,10.37c0,0,15.14-1.4,34.48,5.05c19.34,6.45,25.79,47.37,25.79,47.37
			s151.09,4.2,151.93,3.92c0.84-0.28,101.48,3.08,101.48,3.08s15.42,1.4,23.27,1.68S529.27,229.62,501.8,214.48z"/>
		<path class="st4" d="M501.8,214.48c-27.47-15.14-66.44-35.88-99.23-40.08c-32.8-4.21-113.25-7.29-113.25-7.29
			s-0.46-8.88,3.92-19.06c0.56-1.29,1.13-2.45,1.71-3.56c0.11-4.61,1.36-8.97,3.5-12.83l-19.49,1.86c-1.62,0.15-3.16,0.8-4.42,1.83
			c-7.03,5.81-32.48,25.65-54.46,27.56c-9.3,0.81-20.34,0.78-30.66,0.41c37.78,3.53,190.9,17.95,204.65,20.89
			c10.97,2.35,79.23,28.78,119.36,44.5C516.21,226.01,514.66,221.57,501.8,214.48z"/>
		<path class="st8" d="M394.05,181.82c-2.9,0-7.89,0-12.05,0c-0.96,0-1.74,1.64-2.37,4.31c-7.45,4.86-12.41,13.34-12.41,23.03
			c0,9.29,4.56,17.49,11.51,22.43c0.47,3.04,1.08,4.92,1.83,4.92c4.06,0,8.27,0,13.5,0c14.82,0,26.83-12.24,26.83-27.34
			C420.89,194.07,408.87,181.82,394.05,181.82z"/>
		<ellipse class="st2" cx="382" cy="209.17" rx="26.83" ry="27.34"/>
		<ellipse class="st12" cx="382" cy="209.17" rx="19.77" ry="20.15"/>
		<ellipse class="st1" cx="382" cy="209.17" rx="14.89" ry="15.17"/>
		<ellipse class="st22" cx="386.02" cy="209.17" rx="4.82" ry="4.91"/>
		<path class="st8" d="M295.82,184.83l14.24,0.21l-19.28,31.36c-1.54,2.51-4.31,3.99-7.25,3.89l-13.84-0.49l19.2-31.17
			C290.37,186.23,293,184.79,295.82,184.83z"/>
		<circle class="st12" cx="274.27" cy="155.05" r="10.28"/>
		<path class="st21" d="M423.31,214.48l42.61,2.24c0,0,7.57,3.92,9.81,7.01c2.24,3.08-1.68,7.01-1.68,7.01l-27.47,0.84
			L423.31,214.48z"/>
		<path class="st20" d="M448.53,234.94l-38.4-2.24l4.49-20.46c0,0,0.74-2.46,13.74,1.4c12.55,3.73,20.44,12.81,24.05,17.92
			c1.06,1.5-0.06,3.55-1.9,3.47L448.53,234.94z"/>
		<path class="st8" d="M377.96,171.66c-1.75-9.78-9.82-16.33-19.92-16.33c-9.18,0-16.47,5.34-19.11,13.8
			C352.16,169.87,365.46,170.67,377.96,171.66z"/>
		<path class="st16" d="M358.83,153.77l-0.51,2.18c-0.28,1.34,0.63,2.66,2.04,2.96l0.25,0.05c1.41,0.29,2.79-0.56,3.07-1.9
			l0.51-2.18c0.28-1.34-0.63-2.66-2.04-2.96l-0.25-0.05C360.49,151.58,359.12,152.43,358.83,153.77z"/>
		<path class="st16" d="M364.03,154.92l-0.93,2.04c-0.54,1.26,0.09,2.74,1.42,3.3l0.24,0.1c1.33,0.57,2.84,0,3.38-1.25l0.93-2.04
			c0.54-1.26-0.09-2.74-1.42-3.3l-0.24-0.1C366.09,153.1,364.57,153.66,364.03,154.92z"/>
		<path class="st16" d="M368.65,157.34l-1.33,1.8c-0.8,1.12-0.49,2.69,0.69,3.53l0.21,0.15c1.18,0.83,2.78,0.6,3.57-0.51l1.33-1.8
			c0.8-1.12,0.49-2.69-0.69-3.53l-0.21-0.15C371.05,155.99,369.45,156.22,368.65,157.34z"/>
		<path class="st16" d="M340.66,163.54l1.68,1.48c1.04,0.89,2.64,0.71,3.57-0.39l0.16-0.2c0.93-1.1,0.84-2.72-0.21-3.6l-1.68-1.48
			c-1.04-0.89-2.64-0.71-3.57,0.39l-0.16,0.2C339.53,161.04,339.62,162.66,340.66,163.54z"/>
		<path class="st16" d="M344.47,160.32l1.33,1.8c0.83,1.09,2.43,1.25,3.57,0.37l0.2-0.16c1.14-0.88,1.39-2.48,0.55-3.57l-1.33-1.8
			c-0.83-1.09-2.43-1.25-3.57-0.37l-0.2,0.16C343.88,157.64,343.63,159.24,344.47,160.32z"/>
		<polygon class="st23" points="328.91,168.93 335.01,160.52 378.46,158.84 389.57,172.99 		"/>
		<path class="st24" d="M378.07,172.22l11.51,0.77l-11.12-14.16l-10.93,0.51C371.07,163.65,375.75,168.88,378.07,172.22z"/>
		<g>
			<path class="st21" d="M247.1,224.46c5.1-0.54,12.6-4.32,17.27-10.54c5.05-6.73,14.58-21.86,14.58-21.86s-42.05-1.68-47.09-2.24
				c-5.05-0.56-21.17-10.02-29.43-14.3c-4.06-2.1-18-3.47-31.27-4.03c6.14,0.5,14.42,1.78,23.7,4.87
				c19.34,6.45,25.79,47.37,25.79,47.37S231.36,224.03,247.1,224.46z"/>
		</g>
		<path class="st8" d="M264.19,195.35l3.92,0.14l-10,16.26c-0.84,1.37-2.38,2.16-3.99,2.05l-3.24-0.23l10.2-16.57
			C261.74,195.94,262.93,195.31,264.19,195.35z"/>
		<path class="st8" d="M252.87,194.86l3.92,0.14l-10,16.26c-0.84,1.37-2.38,2.16-3.99,2.05l-3.24-0.23l10.2-16.57
			C250.42,195.45,251.61,194.81,252.87,194.86z"/>
		
			<ellipse transform="matrix(0.3743 -0.9273 0.9273 0.3743 98.5934 534.632)" class="st12" cx="445.48" cy="194.25" rx="3.68" ry="23.76"/>
	</g>
	<g>
		<polygon class="st25" points="201.65,236.79 186.48,242.88 258.41,248.58 276.6,241.46 		"/>
		<polygon class="st25" points="296.71,242.72 278.19,250.15 380.18,258.24 402.92,249.34 		"/>
		<polygon class="st25" points="423.06,250.6 400.08,259.82 521.14,269.42 545.06,258.21 		"/>
		<polygon class="st25" points="181.52,235.54 104.58,230.74 87.58,235.04 166.76,241.31 		"/>
	</g>
	<path class="st0" d="M330.09,63.24l-67.28,3.92c0,0,6.03-8.35,11.21-9.53c8.22-1.87,10.65,0.56,10.65,0.56s2.24-9.53,14.02-11.21
		c11.77-1.68,14.02,5.61,14.02,5.61s5.79-0.75,10.84,1.5C329.17,56.58,330.09,63.24,330.09,63.24z"/>
</g>
</svg>
